<svg fill="#ffffff" height="200px" width="200px" version="1.1" id="Capa_1" xmlns="http://www.w3.org/2000/svg" xmlns:xlink="http://www.w3.org/1999/xlink" viewBox="-5.4 -5.4 64.8 64.8" xml:space="preserve" stroke="#ffffff" transform="rotate(0)"><g id="SVGRepo_bgCarrier" stroke-width="0"></g><g id="SVGRepo_tracerCarrier" stroke-linecap="round" stroke-linejoin="round" stroke="#cccccc" stroke-width="0.6479999999999999"></g><g id="SVGRepo_iconCarrier"> <g> <path d="M 51.2 21 h -5.1 c -0.8 0 -1.5 -0.4 -1.8 -1.2 s -0.2 -1.5 0.4 -2.1 l 3.6 -3.6 c 0.5 -0.5 0.8 -1.2 0.8 -2 c 0 -0.7 -0.3 -1.4 -0.8 -2 l -4.6 -4.6 c -1.1 -1.1 -2.9 -1.1 -3.9 0 l -3.6 3.6 c -0.6 0.6 -1.4 0.7 -2.1 0.4 C 33.4 9.3 33 8.6 33 7.8 V 2.8 C 33 1.2 31.8 0 30.2 0 H 23.8 C 22.2 0 21 1.2 21 2.8 v 5.1 c 0 0.8 -0.4 1.5 -1.2 1.8 c -0.7 0.3 -1.5 0.2 -2.1 -0.4 l -3.6 -3.6 c -1.1 -1.1 -2.9 -1.1 -3.9 0 l -4.6 4.6 c -0.5 0.5 -0.8 1.2 -0.8 2 c 0 0.7 0.3 1.4 0.8 2 l 3.6 3.6 c 0.6 0.6 0.7 1.4 0.4 2.1 S 8.6 21 7.8 21 H 2.8 C 1.2 21 0 22.2 0 23.8 v 6.4 C 0 31.8 1.2 33 2.8 33 h 5.1 c 0.8 0 1.5 0.4 1.8 1.2 s 0.2 1.5 -0.4 2.1 l -3.6 3.6 c -0.5 0.5 -0.8 1.2 -0.8 2 c 0 0.7 0.3 1.4 0.8 2 l 4.6 4.6 c 1.1 1.1 2.9 1.1 3.9 0 l 3.6 -3.6 c 0.6 -0.6 1.4 -0.7 2.1 -0.4 c 0.8 0.3 1.2 1 1.2 1.8 v 5.1 c 0 1.5 1.2 2.8 2.8 2.8 h 6.4 c 1.5 0 2.8 -1.2 2.8 -2.8 v -5.1 c 0 -0.8 0.4 -1.5 1.2 -1.8 c 0.8 -0.3 1.5 -0.2 2.1 0.4 l 3.6 3.6 c 1.1 1.1 2.9 1.1 3.9 0 l 4.6 -4.6 c 0.5 -0.5 0.8 -1.2 0.8 -2 c 0 -0.7 -0.3 -1.4 -0.8 -2 l -3.6 -3.6 c -0.6 -0.6 -0.7 -1.4 -0.4 -2.1 S 45.4 33 46.2 33 h 5.1 c 1.5 0 2.8 -1.2 2.8 -2.8 V 23.8 C 54 22.2 52.8 21 51.2 21 z M 52 30.2 C 52 30.6 51.6 31 51.2 31 h -5.1 c -1.6 0 -3 0.9 -3.6 2.4 c -0.6 1.5 -0.3 3.1 0.9 4.3 l 3.6 3.6 c 0.3 0.3 0.3 0.8 0 1.1 l -4.6 4.6 c -0.3 0.3 -0.8 0.3 -1.1 0 l -3.6 -3.6 c -1.1 -1.1 -2.8 -1.5 -4.3 -0.9 c -1.5 0.6 -2.4 2 -2.4 3.6 v 5.1 C 31 51.6 30.6 52 30.2 52 H 23.8 C 23.4 52 23 51.6 23 51.2 v -5.1 c 0 -1.6 -0.9 -3 -2.4 -3.6 c -0.5 -0.2 -1 -0.3 -1.5 -0.3 c -1 0 -2 0.4 -2.8 1.2 l -3.6 3.6 c -0.3 0.3 -0.8 0.3 -1.1 0 l -4.6 -4.6 c -0.3 -0.3 -0.3 -0.8 0 -1.1 l 3.6 -3.6 c 1.1 -1.1 1.5 -2.8 0.9 -4.3 C 10.9 31.9 9.5 31 7.8 31 H 2.8 C 2.4 31 2 30.6 2 30.2 V 23.8 C 2 23.4 2.4 23 2.8 23 h 5.1 c 1.6 0 3 -0.9 3.6 -2.4 c 0.6 -1.5 0.3 -3.1 -0.9 -4.3 l -3.6 -3.6 c -0.3 -0.3 -0.3 -0.8 0 -1.1 l 4.6 -4.6 c 0.3 -0.3 0.8 -0.3 1.1 0 l 3.6 3.6 c 1.1 1.1 2.8 1.5 4.3 0.9 C 22.1 10.9 23 9.5 23 7.8 V 2.8 C 23 2.4 23.4 2 23.8 2 h 6.4 C 30.6 2 31 2.4 31 2.8 v 5.1 c 0 1.6 0.9 3 2.4 3.6 c 1.5 0.6 3.1 0.3 4.3 -0.9 l 3.6 -3.6 c 0.3 -0.3 0.8 -0.3 1.1 0 l 4.6 4.6 c 0.3 0.3 0.3 0.8 0 1.1 l -3.6 3.6 c -1.1 1.1 -1.5 2.8 -0.9 4.3 c 0.6 1.5 2 2.4 3.6 2.4 h 5.1 C 51.6 23 52 23.4 52 23.8 V 30.2 z"></path> <path d="M 27 18 c -5 0 -9 4 -9 9 s 4 9 9 9 s 9 -4 9 -9 S 32 18 27 18 z M 27 34 c -3.9 0 -7 -3.1 -7 -7 s 3.1 -7 7 -7 s 7 3.1 7 7 S 30.9 34 27 34 z"></path> </g> </g></svg>